<svg xmlns="http://www.w3.org/2000/svg" width="27" height="26" viewBox="0 0 27 26">
    <path fill="#1E1E24" d="M13.381 25.661h-.005c-2.001 0-3.985-.477-5.763-1.38L2.13 25.536c-.334.077-.684-.024-.928-.268-.243-.244-.346-.596-.272-.934l1.187-5.444C1.098 16.991.56 14.91.556 12.846v-.02c.001-3.42 1.343-6.641 3.776-9.07C6.76 1.335 9.974 0 13.381 0c3.415.001 6.623 1.337 9.035 3.76 2.446 2.457 3.792 5.68 3.79 9.075 0 2.566-.763 5.046-2.206 7.172-.312.46-.936.578-1.393.263-.456-.315-.573-.944-.26-1.404 1.213-1.789 1.855-3.874 1.856-6.031 0-2.855-1.136-5.569-3.2-7.644-2.035-2.043-4.741-3.17-7.622-3.17-5.958 0-10.808 4.837-10.821 10.786v.02c0 1.84.513 3.708 1.486 5.399.125.219.165.477.111.724l-.93 4.264 4.3-.987c.238-.054.487-.02.701.097 1.571.86 3.352 1.316 5.149 1.316h.004c1.954 0 3.873-.532 5.55-1.54.475-.286 1.09-.13 1.373.35.283.48.128 1.1-.347 1.385-1.987 1.195-4.26 1.826-6.576 1.826zM9.891 7.174H9.33c-.196 0-.513.074-.782.369S7.52 8.55 7.52 10c0 1.451 1.051 2.853 1.198 3.05.147.196 2.03 3.268 5.011 4.45 2.478.982 2.983.787 3.52.738.538-.05 1.736-.713 1.98-1.402.245-.688.245-1.278.172-1.401-.073-.123-.27-.197-.562-.344-.294-.148-1.732-.873-2-.972-.27-.098-.465-.147-.66.148-.197.295-.773.977-.944 1.173-.17.197-.342.222-.636.074-.293-.148-1.228-.464-2.349-1.469-.872-.781-1.477-1.778-1.648-2.073-.172-.295-.019-.455.128-.602.132-.132.31-.312.457-.484.146-.172.188-.295.286-.492.098-.197.049-.369-.024-.517-.074-.147-.637-1.605-.898-2.188-.22-.491-.45-.508-.66-.516z"/>
</svg>
