<?xml version="1.0" encoding="utf-8"?>
<!-- Generator: Adobe Illustrator 21.0.0, SVG Export Plug-In . SVG Version: 6.00 Build 0)  -->
<svg version="1.1" id="Capa_1" xmlns="http://www.w3.org/2000/svg" xmlns:xlink="http://www.w3.org/1999/xlink" x="0px" y="0px"
	 viewBox="0 0 25 18" style="enable-background:new 0 0 25 18;" xml:space="preserve">
<style type="text/css">
	.st0{fill:none;stroke:#000000;stroke-width:0.694;stroke-miterlimit:10;}
	.st1{fill:none;stroke:#000000;stroke-width:0.7294;stroke-miterlimit:10;}
</style>
<path class="st0" d="M16.9,17.6H7.3c-0.8,0-1.4-0.6-1.4-1.4V9.1c0-0.8,0.6-1.4,1.4-1.4h9.6c0.8,0,1.4,0.6,1.4,1.4v7.2
	C18.3,17,17.7,17.6,16.9,17.6z"/>
<path class="st1" d="M8.6,7.6V4c0-2,1.6-3.6,3.6-3.6h0c2,0,3.6,1.6,3.6,3.6v3.7"/>
<path d="M12.1,9.7c-1,0-1.8,0.8-1.8,1.8c0,0.5,0.2,0.9,0.5,1.3v1.6c0,0.7,0.6,1.3,1.3,1.3c0.7,0,1.3-0.6,1.3-1.3v-1.6
	c0.3-0.3,0.5-0.8,0.5-1.3C13.9,10.5,13.1,9.7,12.1,9.7z M12.5,12.3v2c0,0.2-0.2,0.4-0.4,0.4c-0.2,0-0.4-0.2-0.4-0.4v-2
	c-0.3-0.2-0.5-0.5-0.5-0.8c0-0.5,0.4-0.9,0.9-0.9s0.9,0.4,0.9,0.9C13.1,11.8,12.9,12.1,12.5,12.3z"/>
</svg>
