<svg xmlns="http://www.w3.org/2000/svg" width="25" height="26" viewBox="0 0 25 26">
    <g fill="#1E1E24">
        <path d="M6.143 12.957c0 3.506 2.749 6.347 6.142 6.347 3.391 0 6.143-2.841 6.143-6.347 0-3.504-2.752-6.345-6.143-6.345-3.393 0-6.142 2.841-6.142 6.345zm6.142 4.123c-2.204 0-3.991-1.846-3.991-4.121 0-2.277 1.787-4.122 3.991-4.122s3.989 1.845 3.989 4.122c0 2.275-1.785 4.121-3.989 4.121z"/>
        <ellipse cx="18.428" cy="6.612" rx="1.536" ry="1.586"/>
        <path d="M23.92 4.638c-.64-1.702-1.943-3.047-3.593-3.704-.954-.37-1.962-.569-2.983-.591-1.314-.06-1.73-.076-5.062-.076-3.331 0-3.759 0-5.062.076-1.017.02-2.026.22-2.98.59-1.65.658-2.953 2.003-3.592 3.705C.29 5.623.097 6.662.076 7.714.018 9.068 0 9.497 0 12.936c0 3.436 0 3.874.076 5.22.02 1.054.213 2.092.572 3.079.64 1.7 1.943 3.045 3.594 3.704.95.383 1.958.6 2.981.633 1.314.06 1.73.078 5.062.078 3.332 0 3.76 0 5.062-.078 1.02-.02 2.028-.22 2.983-.59 1.65-.66 2.952-2.003 3.592-3.705.36-.985.551-2.024.572-3.076.059-1.354.076-1.784.076-5.222 0-3.438 0-3.874-.076-5.221-.018-1.067-.209-2.124-.575-3.12zm-1.662 13.415c-.01.81-.152 1.614-.425 2.375-.416 1.108-1.263 1.983-2.336 2.408-.73.28-1.5.427-2.278.438-1.296.062-1.662.078-4.986.078-3.326 0-3.666 0-4.987-.078-.776-.01-1.548-.158-2.277-.438-1.076-.423-1.93-1.299-2.345-2.408-.268-.751-.412-1.546-.425-2.348-.058-1.337-.072-1.715-.072-5.143 0-3.43 0-3.78.072-5.144.01-.81.152-1.613.425-2.374.416-1.11 1.269-1.984 2.345-2.41.729-.278 1.501-.426 2.277-.437 1.298-.06 1.662-.078 4.987-.078s3.666 0 4.986.078c.779.01 1.548.157 2.278.438 1.073.426 1.92 1.301 2.336 2.409.268.751.412 1.547.425 2.349.058 1.338.073 1.714.073 5.144 0 3.428 0 3.797-.058 5.142h-.015v-.001z"/>
    </g>
</svg>
