<svg xmlns="http://www.w3.org/2000/svg" width="25" height="18" viewBox="0 0 25 18">
    <g fill="#1E1E24">
        <path d="M18.534 11.207c-1.663 0-3.017 1.353-3.017 3.017s1.354 3.017 3.017 3.017c1.665 0 3.018-1.353 3.018-3.017s-1.354-3.017-3.018-3.017zm0 4.526c-.832 0-1.508-.677-1.508-1.509 0-.832.676-1.508 1.508-1.508s1.51.676 1.51 1.508-.678 1.509-1.51 1.509zM8.19 11.207c-1.664 0-3.018 1.353-3.018 3.017s1.354 3.017 3.018 3.017c1.663 0 3.017-1.353 3.017-3.017s-1.354-3.017-3.017-3.017zm0 4.526c-.832 0-1.509-.677-1.509-1.509 0-.832.677-1.508 1.509-1.508.831 0 1.508.676 1.508 1.508s-.676 1.509-1.508 1.509zM21.017 2.172c-.128-.275-.388-.448-.673-.448H16.38v1.628h3.501l2.05 4.407 1.346-.732-2.259-4.855z"/>
        <path d="M10.345 12.931H16.379V14.655H10.345zM6.108 12.931H3.375c-.436 0-.789.386-.789.862s.353.862.789.862h2.733c.436 0 .789-.386.789-.862s-.353-.862-.789-.862zM24.837 8.408l-1.525-1.95c-.147-.188-.373-.298-.613-.298h-5.636V.77c0-.425-.347-.77-.775-.77H3.362c-.429 0-.776.345-.776.77 0 .425.347.77.776.77h12.15v5.39c0 .425.347.77.776.77h6.031l1.13 1.444v3.971h-2.146c-.428 0-.775.345-.775.77 0 .426.347.77.775.77h2.921c.429 0 .776-.345.776-.77V8.88c0-.17-.057-.337-.163-.472zM6.113 9.483H2.508c-.433 0-.784.386-.784.862s.351.862.784.862h3.605c.433 0 .784-.386.784-.862s-.351-.862-.784-.862zM7.802 6.034H.818c-.452 0-.818.386-.818.863 0 .476.366.862.818.862h6.984c.452 0 .819-.386.819-.862 0-.477-.367-.863-.819-.863z"/>
        <path d="M8.664 3.448H1.68c-.452 0-.818.386-.818.862 0 .477.366.862.818.862h6.984c.452 0 .819-.386.819-.862s-.367-.862-.819-.862z"/>
    </g>
</svg>
