<svg xmlns="http://www.w3.org/2000/svg" width="15" height="26" viewBox="0 0 15 26">
    <path fill="#1E1E24" d="M8.913 25.875H5.021c-.65 0-1.179-.563-1.179-1.255v-9.346h-2.27c-.65 0-1.18-.564-1.18-1.255v-4.005c0-.692.53-1.255 1.18-1.255h2.27V6.753c0-1.988.587-3.68 1.696-4.892C6.652.643 8.21 0 10.042 0l2.968.005c.649.001 1.177.564 1.177 1.255V4.98c0 .692-.529 1.255-1.179 1.255H11.01c-.61 0-.765.13-.798.17-.055.067-.12.254-.12.77v1.584h2.766c.208 0 .41.055.584.158.374.223.606.643.606 1.098l-.001 4.005c0 .691-.53 1.254-1.18 1.254h-2.775v9.347c0 .692-.529 1.255-1.179 1.255zm-3.646-1.517h3.4v-9.763c0-.463.353-.838.787-.838h3.168l.001-3.482H9.454c-.434 0-.787-.375-.787-.838V7.174c0-.593.057-1.267.477-1.773.508-.613 1.308-.683 1.865-.683l1.753-.001V1.522l-2.721-.005c-2.944 0-4.774 2.006-4.774 5.236v2.684c0 .462-.353.838-.787.838H1.817v3.482H4.48c.434 0 .787.375.787.838v9.763z"/>
</svg>
