<svg xmlns="http://www.w3.org/2000/svg" width="26" height="24" viewBox="0 0 26 24">
    <path fill="#1E1E24" d="M.348 21.301c2.382 1.684 5.155 2.574 8.017 2.574 4.192 0 8.033-1.794 10.818-5.05 2.664-3.118 4.13-7.307 4.057-11.557 1.01-.963 2.197-2.8 2.197-4.592 0-.687-.669-1.123-1.211-.773-.949.621-1.814.783-2.704.505C19.705.435 17 .02 14.721 1.388c-1.992 1.195-3.1 3.38-3 5.769-3.365-.458-6.475-2.337-8.642-5.259-.356-.476-1.032-.42-1.315.12C.72 4.01.731 6.318 1.64 8.183c-.432.085-.7.49-.7.928 0 1.874.758 3.596 1.977 4.771-.228.244-.303.606-.206.928.536 1.794 1.75 3.196 3.267 3.898-1.65.878-3.475 1.17-5.1.949-.84-.127-1.255 1.132-.529 1.644zm8.237-2.286c.601-.514.282-1.587-.473-1.605-1.33-.03-2.54-.76-3.293-1.908.363-.027.74-.089 1.098-.196.815-.246.777-1.558-.052-1.743-1.504-.337-2.684-1.557-3.127-3.129.404.111.816.173 1.226.182.814.004 1.122-1.158.458-1.644-1.496-1.097-2.133-3.036-1.711-4.858 2.612 2.947 6.155 4.723 9.903 4.924.537.037.94-.526.822-1.095-.509-2.46.724-4.183 2.048-4.977 1.31-.788 3.414-1.034 5.026.85.48.563 2.096.584 2.918.37-.369.774-.936 1.509-1.466 1.922-.227.177-.356.47-.342.778.172 3.923-1.14 7.824-3.6 10.7-2.48 2.9-5.907 4.496-9.654 4.496-1.49 0-2.951-.27-4.332-.79 1.651-.356 3.22-1.135 4.551-2.277z"/>
</svg>
