<svg xmlns="http://www.w3.org/2000/svg" width="26" height="24" viewBox="0 0 26 24">
    <g fill="#1E1E24" stroke="#1E1E24" stroke-width=".25">
        <path d="M17.25 22H2.75C1.233 22 0 20.763 0 19.24v-8.529c0-1.522 1.233-2.76 2.75-2.76h14.5c1.517 0 2.75 1.238 2.75 2.76v8.53C20 20.763 18.767 22 17.25 22zM2.75 9.457c-.689 0-1.25.563-1.25 1.254v8.53c0 .69.561 1.254 1.25 1.254h14.5c.689 0 1.25-.563 1.25-1.254v-8.53c0-.691-.561-1.254-1.25-1.254H2.75z" transform="translate(1 1)"/>
        <path d="M6.227 15.904h-1.52c-.978 0-1.774-.791-1.774-1.763v-1.51c0-.973.796-1.764 1.774-1.764h1.52c.978 0 1.773.791 1.773 1.763v1.511c0 .972-.795 1.763-1.773 1.763zm-1.52-3.526c-.14 0-.254.113-.254.252v1.511c0 .139.114.252.254.252h1.52c.14 0 .253-.113.253-.252v-1.51c0-.14-.113-.253-.253-.253h-1.52zM16.324 19.084H3.943c-.41 0-.743-.356-.743-.795 0-.439.333-.795.743-.795h12.38c.41 0 .744.356.744.795 0 .44-.333.795-.743.795zM22.72 5.566H5.28c-.412 0-.747-.356-.747-.795 0-.439.335-.795.748-.795h17.438c.413 0 .748.356.748.795 0 .439-.335.795-.748.795z" transform="translate(1 1)"/>
        <path d="M22.25 13.783c-.261 0-.515-.137-.653-.382-.205-.361-.078-.821.282-1.026.388-.221.62-.623.62-1.073v-8.54c0-.692-.561-1.255-1.25-1.255H6.75c-.689 0-1.25.563-1.25 1.256v3.013c0 .416-.336.754-.75.754S4 6.192 4 5.776V2.763C4 1.239 5.233 0 6.75 0h14.5C22.767 0 24 1.239 24 2.763v8.539c0 .985-.529 1.898-1.38 2.384-.117.066-.244.097-.37.097z" transform="translate(1 1)"/>
    </g>
</svg>
