<svg xmlns="http://www.w3.org/2000/svg" width="24" height="20" viewBox="0 0 24 20">
    <g fill="none" fill-rule="evenodd">
        <path d="M0 0H24V24H0z" transform="translate(0 -2)"/>
        <path fill="#1E1E24" fill-rule="nonzero" d="M12.08 22c-.583 0-1.114-.218-1.544-.606l-8.6-8.242C.19 11.479-.444 9.03.315 6.824 1.328 3.891 3.96 2 7.046 2c1.871 0 3.617.703 4.907 1.94l.1.096.102-.097C13.47 2.68 15.215 2 17.062 2c1.872 0 3.618.703 4.908 1.94 2.707 2.593 2.707 6.836 0 9.43l-8.398 8.048c-.355.364-.911.582-1.493.582zM7.146 4.5c-1.592 0-3.558.832-4.379 3.185-.473 1.355-.075 2.877.995 3.899L12.05 19.5l8.086-7.726c.846-.808 1.294-1.878 1.294-3.019 0-1.14-.473-2.21-1.294-3.019-.846-.808-1.966-1.236-3.16-1.236-1.194 0-2.314.452-3.16 1.236l-.945.88c-.473.451-1.22.451-1.692 0l-.92-.88C9.46 4.928 8.34 4.5 7.147 4.5z" transform="translate(0 -2)"/>
    </g>
</svg>
